<svg width="168" height="168" viewBox="0 0 168 168" fill="none" xmlns="http://www.w3.org/2000/svg">
<circle opacity="0.1" cx="84" cy="84" r="72" fill="white"/>
<mask id="mask0_54_161" style="mask-type:alpha" maskUnits="userSpaceOnUse" x="2" y="2" width="165" height="165">
<circle cx="84.5" cy="84.5" r="82.45" stroke="#D9D9D9" stroke-width="0.1"/>
</mask>
<g mask="url(#mask0_54_161)">
<rect width="165" height="168" transform="matrix(-1 0 0 1 165 0)" fill="url(#paint0_linear_54_161)"/>
</g>
<mask id="mask1_54_161" style="mask-type:alpha" maskUnits="userSpaceOnUse" x="6" y="6" width="156" height="156">
<circle cx="84" cy="84" r="77.95" stroke="#D9D9D9" stroke-width="0.1"/>
</mask>
<g mask="url(#mask1_54_161)">
<rect width="8.8377" height="67.946" transform="matrix(-0.742723 -0.669598 -0.669598 0.742723 58.5553 8.15604)" fill="url(#paint1_linear_54_161)"/>
</g>
<mask id="mask2_54_161" style="mask-type:alpha" maskUnits="userSpaceOnUse" x="4" y="4" width="161" height="161">
<circle cx="84.1317" cy="84.1317" r="80.0816" stroke="#D9D9D9" stroke-width="0.1"/>
</mask>
<g mask="url(#mask2_54_161)">
<rect width="32.9801" height="188.545" transform="matrix(-0.526903 0.849925 0.849925 0.526903 -13.8448 82.4888)" fill="url(#paint2_linear_54_161)"/>
</g>
<mask id="mask3_54_161" style="mask-type:alpha" maskUnits="userSpaceOnUse" x="6" y="6" width="157" height="157">
<circle cx="84.6116" cy="84.6116" r="77.85" transform="rotate(-151.78 84.6116 84.6116)" stroke="#D9D9D9" stroke-width="0.3"/>
</mask>
<g mask="url(#mask3_54_161)">
<rect width="32.9801" height="188.545" transform="matrix(0.866167 -0.499755 -0.499755 -0.866167 170.675 128.893)" fill="url(#paint3_linear_54_161)"/>
</g>
<defs>
<linearGradient id="paint0_linear_54_161" x1="165" y1="84" x2="-9.18819e-07" y2="84" gradientUnits="userSpaceOnUse">
<stop stop-color="#D9D9D9"/>
<stop offset="1" stop-color="#737373" stop-opacity="0"/>
</linearGradient>
<linearGradient id="paint1_linear_54_161" x1="8.8377" y1="33.973" x2="-4.92137e-08" y2="33.973" gradientUnits="userSpaceOnUse">
<stop stop-color="#D9D9D9"/>
<stop offset="1" stop-color="#737373" stop-opacity="0"/>
</linearGradient>
<linearGradient id="paint2_linear_54_161" x1="32.9801" y1="94.2725" x2="-1.83653e-07" y2="94.2725" gradientUnits="userSpaceOnUse">
<stop stop-color="#D9D9D9"/>
<stop offset="1" stop-color="#737373" stop-opacity="0"/>
</linearGradient>
<linearGradient id="paint3_linear_54_161" x1="32.9801" y1="94.2725" x2="-1.83653e-07" y2="94.2725" gradientUnits="userSpaceOnUse">
<stop stop-color="#D9D9D9"/>
<stop offset="1" stop-color="#737373" stop-opacity="0"/>
</linearGradient>
</defs>
</svg>
