<?xml version="1.0" encoding="UTF-8"?>
<svg xmlns="http://www.w3.org/2000/svg">
  <symbol id="plus" fill="none" viewBox="0 0 18 18">
    <g>
      <path
        d="M9 18C8.71667 18 8.47934 17.904 8.288 17.712C8.09667 17.52 8.00067 17.2827 8 17V10H1C0.71667 10 0.479337
        9.904 0.288004 9.712C0.0966702 9.52 0.000670115 9.28267 3.44827e-06 9C-0.000663218 8.71734 0.0953369 8.48
        0.288004 8.288C0.48067 8.096 0.718003 8 1 8H8V1C8 0.71667 8.096 0.479337 8.288 0.288004C8.48 0.0966702
        8.71734 0.000670115 9 3.44827e-06C9.28267 -0.000663218 9.52034 0.0953369 9.713 0.288004C9.90567 0.48067
        10.0013 0.718003 10 1V8H17C17.2833 8 17.521 8.096 17.713 8.288C17.905 8.48 18.0007 8.71734 18 9C17.9993
        9.28267 17.9033 9.52034 17.712 9.713C17.5207 9.90567 17.2833 10.0013 17 10H10V17C10 17.2833 9.904 17.521
        9.712 17.713C9.52 17.905 9.28267 18.0007 9 18Z"
        fill="currentColor"
      />
    </g>
  </symbol>
  <symbol id="cross" fill="none" viewBox="0 0 14 14">
    <g>
      <path d="M6.575 7.975L1.675 12.875C1.49167 13.0583 1.25833 13.15 0.975 13.15C0.691667 13.15 0.458333 13.0583 0.275 12.875C0.0916663 12.6917 0 12.4583 0 12.175C0 11.8917 0.0916663 11.6583 0.275 11.475L5.175 6.575L0.275 1.675C0.0916663 1.49167 0 1.25833 0 0.975C0 0.691667 0.0916663 0.458333 0.275 0.275C0.458333 0.0916663 0.691667 0 0.975 0C1.25833 0 1.49167 0.0916663 1.675 0.275L6.575 5.175L11.475 0.275C11.6583 0.0916663 11.8917 0 12.175 0C12.4583 0 12.6917 0.0916663 12.875 0.275C13.0583 0.458333 13.15 0.691667 13.15 0.975C13.15 1.25833 13.0583 1.49167 12.875 1.675L7.975 6.575L12.875 11.475C13.0583 11.6583 13.15 11.8917 13.15 12.175C13.15 12.4583 13.0583 12.6917 12.875 12.875C12.6917 13.0583 12.4583 13.15 12.175 13.15C11.8917 13.15 11.6583 13.0583 11.475 12.875L6.575 7.975Z"
            fill="currentColor"
      />
    </g>
  </symbol>
</svg>



