<?xml version="1.0" encoding="UTF-8"?>
<svg xmlns="http://www.w3.org/2000/svg">
  <symbol id="plus" fill="none" viewBox="0 0 24 24">
    <g>
      <path d="M12 21C11.7167 21 11.4793 20.904 11.288 20.712C11.0967 20.52 11.0007 20.2827 11 20V13H4C3.71667 13 3.47934 12.904 3.288 12.712C3.09667 12.52 3.00067 12.2827 3 12C2.99934 11.7173 3.09534 11.48 3.288 11.288C3.48067 11.096 3.718 11 4 11H11V4C11 3.71667 11.096 3.47934 11.288 3.288C11.48 3.09667 11.7173 3.00067 12 3C12.2827 2.99934 12.5203 3.09534 12.713 3.288C12.9057 3.48067 13.0013 3.718 13 4V11H20C20.2833 11 20.521 11.096 20.713 11.288C20.905 11.48 21.0007 11.7173 21 12C20.9993 12.2827 20.9033 12.5203 20.712 12.713C20.5207 12.9057 20.2833 13.0013 20 13H13V20C13 20.2833 12.904 20.521 12.712 20.713C12.52 20.905 12.2827 21.0007 12 21Z" fill="currentColor"/>
    </g>
  </symbol>
  <symbol id="cross" fill="none" viewBox="0 0 24 24">
    <g>
      <path d="M12 13.4L7.1 18.3C6.91667 18.4834 6.68334 18.575 6.4 18.575C6.11667 18.575 5.88334 18.4834 5.7 18.3C5.51667 18.1167 5.425 17.8834 5.425 17.6C5.425 17.3167 5.51667 17.0834 5.7 16.9L10.6 12L5.7 7.10005C5.51667 6.91672 5.425 6.68338 5.425 6.40005C5.425 6.11672 5.51667 5.88338 5.7 5.70005C5.88334 5.51672 6.11667 5.42505 6.4 5.42505C6.68334 5.42505 6.91667 5.51672 7.1 5.70005L12 10.6L16.9 5.70005C17.0833 5.51672 17.3167 5.42505 17.6 5.42505C17.8833 5.42505 18.1167 5.51672 18.3 5.70005C18.4833 5.88338 18.575 6.11672 18.575 6.40005C18.575 6.68338 18.4833 6.91672 18.3 7.10005L13.4 12L18.3 16.9C18.4833 17.0834 18.575 17.3167 18.575 17.6C18.575 17.8834 18.4833 18.1167 18.3 18.3C18.1167 18.4834 17.8833 18.575 17.6 18.575C17.3167 18.575 17.0833 18.4834 16.9 18.3L12 13.4Z" fill="currentColor"/>
    </g>
  </symbol>
  <symbol id="list" fill="none" viewBox="0 0 24 24">
    <g>
      <path d="M8 17C8.28333 17 8.521 16.904 8.713 16.712C8.905 16.52 9.00067 16.2827 9 16C8.99933 15.7173 8.90333 15.48 8.712 15.288C8.52067 15.096 8.28333 15 8 15C7.71667 15 7.47933 15.096 7.288 15.288C7.09667 15.48 7.00067 15.7173 7 16C6.99933 16.2827 7.09533 16.5203 7.288 16.713C7.48067 16.9057 7.718 17.0013 8 17ZM8 13C8.28333 13 8.521 12.904 8.713 12.712C8.905 12.52 9.00067 12.2827 9 12C8.99933 11.7173 8.90333 11.48 8.712 11.288C8.52067 11.096 8.28333 11 8 11C7.71667 11 7.47933 11.096 7.288 11.288C7.09667 11.48 7.00067 11.7173 7 12C6.99933 12.2827 7.09533 12.5203 7.288 12.713C7.48067 12.9057 7.718 13.0013 8 13ZM8 9C8.28333 9 8.521 8.904 8.713 8.712C8.905 8.52 9.00067 8.28267 9 8C8.99933 7.71733 8.90333 7.48 8.712 7.288C8.52067 7.096 8.28333 7 8 7C7.71667 7 7.47933 7.096 7.288 7.288C7.09667 7.48 7.00067 7.71733 7 8C6.99933 8.28267 7.09533 8.52033 7.288 8.713C7.48067 8.90567 7.718 9.00133 8 9ZM11 17H17V15H11V17ZM11 13H17V11H11V13ZM11 9H17V7H11V9ZM5 21C4.45 21 3.97933 20.8043 3.588 20.413C3.19667 20.0217 3.00067 19.5507 3 19V5C3 4.45 3.196 3.97933 3.588 3.588C3.98 3.19667 4.45067 3.00067 5 3H19C19.55 3 20.021 3.196 20.413 3.588C20.805 3.98 21.0007 4.45067 21 5V19C21 19.55 20.8043 20.021 20.413 20.413C20.0217 20.805 19.5507 21.0007 19 21H5ZM5 19H19V5H5V19Z" fill="currentColor"/>
    </g>
  </symbol>
  <symbol id="settings" fill="none" viewBox="0 0 24 24">
    <g>
      <path d="M10.825 22C10.375 22 9.98765 21.85 9.66298 21.55C9.33831 21.25 9.14231 20.8833 9.07498 20.45L8.84998 18.8C8.63331 18.7167 8.42931 18.6167 8.23798 18.5C8.04665 18.3833 7.85898 18.2583 7.67498 18.125L6.12498 18.775C5.70831 18.9583 5.29165 18.975 4.87498 18.825C4.45831 18.675 4.13331 18.4083 3.89998 18.025L2.72498 15.975C2.49165 15.5917 2.42498 15.1833 2.52498 14.75C2.62498 14.3167 2.84998 13.9583 3.19998 13.675L4.52498 12.675C4.50831 12.5583 4.49998 12.4457 4.49998 12.337V11.662C4.49998 11.554 4.50831 11.4417 4.52498 11.325L3.19998 10.325C2.84998 10.0417 2.62498 9.68333 2.52498 9.25C2.42498 8.81667 2.49165 8.40833 2.72498 8.025L3.89998 5.975C4.13331 5.59167 4.45831 5.325 4.87498 5.175C5.29165 5.025 5.70831 5.04167 6.12498 5.225L7.67498 5.875C7.85831 5.74167 8.04998 5.61667 8.24998 5.5C8.44998 5.38333 8.64998 5.28333 8.84998 5.2L9.07498 3.55C9.14165 3.11667 9.33765 2.75 9.66298 2.45C9.98831 2.15 10.3756 2 10.825 2H13.175C13.625 2 14.0126 2.15 14.338 2.45C14.6633 2.75 14.859 3.11667 14.925 3.55L15.15 5.2C15.3666 5.28333 15.571 5.38333 15.763 5.5C15.955 5.61667 16.1423 5.74167 16.325 5.875L17.875 5.225C18.2916 5.04167 18.7083 5.025 19.125 5.175C19.5416 5.325 19.8666 5.59167 20.1 5.975L21.275 8.025C21.5083 8.40833 21.575 8.81667 21.475 9.25C21.375 9.68333 21.15 10.0417 20.8 10.325L19.475 11.325C19.4916 11.4417 19.5 11.5543 19.5 11.663V12.337C19.5 12.4457 19.4833 12.5583 19.45 12.675L20.775 13.675C21.125 13.9583 21.35 14.3167 21.45 14.75C21.55 15.1833 21.4833 15.5917 21.25 15.975L20.05 18.025C19.8166 18.4083 19.4916 18.675 19.075 18.825C18.6583 18.975 18.2416 18.9583 17.825 18.775L16.325 18.125C16.1416 18.2583 15.95 18.3833 15.75 18.5C15.55 18.6167 15.35 18.7167 15.15 18.8L14.925 20.45C14.8583 20.8833 14.6626 21.25 14.338 21.55C14.0133 21.85 13.6256 22 13.175 22H10.825ZM11 20H12.975L13.325 17.35C13.8416 17.2167 14.321 17.021 14.763 16.763C15.205 16.505 15.609 16.1923 15.975 15.825L18.45 16.85L19.425 15.15L17.275 13.525C17.3583 13.2917 17.4166 13.046 17.45 12.788C17.4833 12.53 17.5 12.2673 17.5 12C17.5 11.7327 17.4833 11.4703 17.45 11.213C17.4166 10.9557 17.3583 10.7097 17.275 10.475L19.425 8.85L18.45 7.15L15.975 8.2C15.6083 7.81667 15.2043 7.496 14.763 7.238C14.3216 6.98 13.8423 6.784 13.325 6.65L13 4H11.025L10.675 6.65C10.1583 6.78333 9.67931 6.97933 9.23798 7.238C8.79665 7.49667 8.39231 7.809 8.02498 8.175L5.54998 7.15L4.57498 8.85L6.72498 10.45C6.64165 10.7 6.58331 10.95 6.54998 11.2C6.51665 11.45 6.49998 11.7167 6.49998 12C6.49998 12.2667 6.51665 12.525 6.54998 12.775C6.58331 13.025 6.64165 13.275 6.72498 13.525L4.57498 15.15L5.54998 16.85L8.02498 15.8C8.39165 16.1833 8.79598 16.5043 9.23798 16.763C9.67998 17.0217 10.159 17.2173 10.675 17.35L11 20ZM12.05 15.5C13.0166 15.5 13.8416 15.1583 14.525 14.475C15.2083 13.7917 15.55 12.9667 15.55 12C15.55 11.0333 15.2083 10.2083 14.525 9.525C13.8416 8.84167 13.0166 8.5 12.05 8.5C11.0666 8.5 10.2376 8.84167 9.56298 9.525C8.88831 10.2083 8.55065 11.0333 8.54998 12C8.54931 12.9667 8.88698 13.7917 9.56298 14.475C10.239 15.1583 11.068 15.5 12.05 15.5Z" fill="currentColor"/>
    </g>
  </symbol>
  <symbol id="pencil" fill="none" viewBox="0 0 16 16">
    <g>
      <path d="M8.29289 3.70711L1 11V15H5L12.2929 7.70711L8.29289 3.70711Z" fill="currentColor"/>
      <path d="M9.70711 2.29289L13.7071 6.29289L15.1716 4.82843C15.702 4.29799 16 3.57857 16 2.82843C16 1.26633 14.7337 0 13.1716 0C12.4214 0 11.702 0.297995 11.1716 0.828428L9.70711 2.29289Z" fill="currentColor"/>
    </g>
  </symbol>
</svg>


